<?xml version="1.0" standalone="no"?>
<!DOCTYPE svg PUBLIC "-//W3C//DTD SVG 20010904//EN"
 "http://www.w3.org/TR/2001/REC-SVG-20010904/DTD/svg10.dtd">
<svg version="1.0" xmlns="http://www.w3.org/2000/svg"
 width="2000.000000pt" height="2000.000000pt" viewBox="0 0 2000.000000 2000.000000"
 preserveAspectRatio="xMidYMid meet">
<metadata>
Created by potrace 1.14, written by Peter Selinger 2001-2017
</metadata>
<g transform="translate(0.000000,2000.000000) scale(0.100000,-0.100000)"
fill="#000000" stroke="none">
<path d="M9570 19324 c-30 -2 -129 -8 -220 -14 -880 -56 -1838 -267 -2675
-588 -288 -110 -508 -207 -810 -357 -759 -376 -1393 -802 -2065 -1389 -148
-129 -646 -627 -776 -776 -556 -635 -994 -1279 -1353 -1988 -566 -1121 -882
-2266 -983 -3562 -17 -221 -17 -1079 0 -1300 101 -1296 417 -2441 983 -3562
359 -709 797 -1353 1353 -1988 130 -149 628 -647 776 -776 525 -459 1009 -805
1585 -1137 231 -133 707 -370 945 -470 976 -413 1934 -644 3020 -729 221 -17
1079 -17 1300 0 1086 85 2044 316 3020 729 368 156 908 437 1260 658 1679
1050 2985 2602 3723 4425 366 903 579 1825 659 2850 17 222 17 1079 0 1300
-29 374 -78 749 -138 1070 -342 1820 -1210 3486 -2504 4804 -916 933 -1978
1646 -3170 2129 -898 364 -1806 575 -2830 658 -129 10 -986 20 -1100 13z m775
-474 c400 -17 747 -52 1105 -111 2258 -372 4269 -1595 5656 -3442 1438 -1914
2035 -4366 1643 -6747 -372 -2259 -1595 -4268 -3442 -5656 -1723 -1294 -3899
-1915 -6057 -1729 -2533 220 -4812 1486 -6346 3528 -1438 1914 -2035 4366
-1643 6747 372 2259 1595 4268 3442 5656 1610 1209 3635 1839 5642 1754z"/>
<path d="M9575 18394 c-22 -2 -112 -9 -200 -15 -644 -43 -1338 -180 -1985
-391 -1528 -498 -2898 -1445 -3919 -2707 -1004 -1242 -1632 -2739 -1811 -4319
-39 -344 -45 -479 -45 -957 0 -478 6 -613 45 -957 179 -1580 807 -3077 1811
-4319 439 -542 950 -1034 1511 -1455 1186 -888 2594 -1447 4066 -1614 344 -39
479 -45 957 -45 478 0 613 6 957 45 2184 248 4187 1350 5577 3069 1004 1242
1632 2739 1811 4319 39 344 45 479 45 957 0 478 -6 613 -45 957 -179 1580
-807 3077 -1811 4319 -438 542 -951 1035 -1509 1453 -898 672 -1924 1158
-3010 1426 -430 106 -871 177 -1365 221 -122 10 -993 21 -1080 13z m277 -1441
c-22 -4 -22 -7 -17 -76 3 -40 14 -304 25 -587 26 -683 26 -680 53 -681 12 -1
-3 -5 -33 -9 -57 -8 -272 -11 -232 -3 28 6 28 -31 -3 693 -14 316 -25 592 -25
613 0 31 -3 37 -22 39 -13 0 -3 4 22 8 48 7 271 10 232 3z m1038 -34 c48 -12
138 -50 209 -87 l125 -64 19 23 c31 38 17 3 -62 -151 -41 -80 -76 -140 -78
-133 -2 7 1 22 8 34 14 27 0 39 -115 97 -190 95 -366 94 -426 -3 -28 -45 -27
-123 1 -159 33 -42 71 -55 197 -72 64 -8 146 -23 182 -34 159 -49 251 -177
252 -352 1 -233 -124 -410 -327 -463 -75 -19 -182 -19 -265 1 -74 17 -224 86
-318 145 l-65 41 -19 -23 c-18 -22 -19 -22 -15 -4 8 40 141 334 148 329 4 -2
2 -19 -6 -38 l-14 -33 80 -57 c96 -69 165 -102 256 -121 121 -26 202 -13 258
39 64 60 80 182 32 242 -30 39 -75 54 -210 69 -66 8 -143 21 -171 29 -173 51
-257 209 -227 428 24 173 120 292 270 335 62 18 178 10 281 -18z m1072 -220
c68 -23 128 -46 133 -52 7 -6 3 -8 -12 -4 -20 4 -25 -3 -51 -82 -16 -47 -96
-279 -176 -514 -81 -236 -146 -431 -144 -433 2 -2 142 -50 311 -108 278 -95
308 -103 317 -88 16 25 6 -10 -44 -149 l-41 -116 -427 146 c-235 81 -431 150
-435 155 -4 5 2 7 14 4 14 -4 24 0 28 10 3 8 100 292 216 629 199 582 210 615
192 629 -28 21 -13 17 119 -27z m-3753 -216 c-1 -104 -4 -172 -8 -153 -6 34
-8 36 -86 58 -235 68 -436 -42 -484 -266 -23 -111 -2 -241 61 -372 76 -157
187 -240 331 -248 127 -7 240 45 328 149 l41 49 -32 95 c-19 58 -37 95 -45 95
-15 0 -234 -75 -241 -83 -3 -2 0 -16 5 -31 6 -14 7 -26 3 -26 -4 0 -29 66 -56
148 -56 170 -61 186 -44 152 6 -14 13 -26 14 -28 1 -2 108 33 239 78 131 44
242 80 246 80 5 0 9 -4 9 -10 0 -5 -7 -10 -15 -10 -8 0 -15 -4 -15 -8 0 -5 31
-101 69 -213 110 -322 101 -301 117 -288 8 7 17 9 21 6 20 -21 -208 -251 -297
-300 -292 -161 -586 -113 -766 126 -81 109 -148 259 -180 411 -20 93 -20 264
1 341 57 219 226 376 438 406 73 11 229 2 315 -18 18 -4 22 -1 22 21 0 14 2
26 5 26 3 0 4 -84 4 -187z m-1495 -337 c-13 -10 -14 -17 -6 -32 5 -10 164
-262 352 -559 323 -511 343 -540 368 -537 24 3 25 1 12 -11 -31 -28 -212 -138
-219 -132 -3 4 2 13 12 20 10 7 15 15 10 18 -82 47 -975 508 -978 505 -4 -3
479 -779 502 -808 2 -2 13 1 23 8 16 10 20 10 20 0 0 -16 -221 -158 -234 -150
-5 3 -1 11 9 18 15 11 16 18 7 36 -6 13 -164 264 -350 558 -329 518 -340 535
-368 532 -26 -3 -27 -2 -14 11 27 26 274 177 279 171 3 -3 -2 -12 -12 -19 -20
-15 -60 8 516 -295 180 -95 330 -171 331 -169 2 2 -96 163 -218 357 -199 317
-223 352 -243 347 -13 -3 -23 -2 -23 2 0 12 224 152 233 146 5 -3 1 -10 -9
-17z m6945 -209 c91 -57 166 -108 169 -116 3 -10 0 -11 -16 -2 -20 11 -23 5
-62 -116 -333 -1058 -369 -1178 -353 -1190 8 -6 13 -16 12 -22 -2 -5 -63 27
-136 72 -72 45 -129 85 -127 89 3 5 14 4 24 -2 17 -9 22 2 59 113 23 67 41
129 41 137 -1 11 -327 221 -370 238 -4 1 -53 -41 -109 -94 -92 -88 -100 -98
-84 -109 10 -8 15 -16 12 -20 -8 -7 -239 134 -239 147 0 12 14 10 27 -3 9 -9
135 108 501 462 270 261 490 480 491 487 1 6 -3 12 -9 12 -5 0 -10 5 -10 10 0
6 3 10 8 9 4 0 81 -46 171 -102z m1021 -752 c63 -63 111 -117 107 -121 -3 -4
-13 -1 -22 6 -12 10 -16 10 -19 -1 -3 -8 -57 -212 -121 -454 -64 -242 -119
-449 -122 -460 -2 -11 130 115 296 280 234 233 298 302 289 312 -6 8 -8 17 -4
20 4 4 50 -36 103 -90 54 -53 94 -99 90 -103 -3 -4 -14 -1 -22 6 -14 12 -40
-10 -201 -171 -102 -101 -312 -313 -466 -472 -221 -226 -278 -290 -269 -300 6
-8 8 -17 4 -21 -9 -9 -194 175 -187 186 3 5 12 4 20 -3 8 -6 16 -10 18 -8 8 9
282 1069 277 1069 -4 0 -158 -152 -344 -338 -293 -293 -336 -340 -323 -351 9
-7 13 -18 10 -23 -4 -6 -51 34 -105 88 -96 95 -112 117 -71 95 18 -10 68 37
486 461 437 444 464 473 449 490 -13 15 -13 18 -2 18 8 0 66 -52 129 -115z
m-9132 -186 c267 -71 512 -321 582 -594 51 -199 2 -397 -127 -515 -219 -200
-565 -160 -843 97 -182 168 -271 352 -271 558 0 143 44 259 131 345 72 73 159
112 300 134 44 7 153 -5 228 -25z m4897 -365 c1396 -125 2683 -901 3458 -2085
52 -79 116 -182 142 -229 27 -47 55 -93 63 -102 10 -12 11 -18 4 -18 -7 0 -12
5 -12 10 0 6 -16 10 -35 10 -19 0 -35 -4 -35 -10 0 -5 -20 -10 -44 -10 -36 0
-46 4 -51 20 -5 16 -15 20 -49 20 -48 0 -106 -17 -106 -31 0 -13 -28 -11 -32
3 -3 8 -12 5 -28 -10 l-24 -22 27 0 c20 0 27 -5 27 -20 0 -11 5 -20 10 -20 6
0 10 -5 10 -12 0 -13 59 -68 73 -68 16 0 6 -29 -12 -35 -11 -3 -24 -12 -30
-19 -9 -11 -6 -12 14 -8 14 2 25 8 25 12 0 11 76 31 93 24 16 -6 77 33 77 48
0 12 82 94 99 99 24 8 186 -339 285 -613 56 -154 129 -406 158 -545 20 -95 23
-103 42 -97 17 4 18 3 6 -5 -26 -19 -75 -13 -101 12 -29 28 -49 61 -49 82 0 8
-4 15 -9 15 -4 0 -11 24 -14 53 -4 29 -13 57 -22 63 -18 13 -20 55 -3 72 6 6
13 26 15 44 2 24 -3 38 -22 55 -14 13 -28 35 -31 48 -7 30 -39 40 -76 26 -29
-11 -68 -45 -68 -60 0 -13 -27 -21 -73 -21 -57 0 -87 9 -87 26 0 8 -7 17 -15
20 -8 4 -15 12 -15 19 0 17 -71 65 -97 65 -11 0 -21 -6 -20 -12 1 -47 -5 -66
-25 -76 -13 -6 -17 -11 -10 -11 21 -2 14 -49 -10 -62 -13 -7 -29 -19 -35 -28
-9 -11 -15 -13 -20 -5 -5 6 -20 13 -35 16 -23 4 -31 -1 -50 -28 -19 -28 -30
-34 -58 -34 -24 0 -39 6 -47 19 -7 11 -25 21 -40 23 -22 2 -29 9 -31 31 -2 18
2 29 13 33 13 5 15 19 9 98 -4 50 -9 94 -13 98 -4 4 -31 5 -60 1 l-53 -6 6
-56 c4 -30 13 -69 21 -85 20 -40 20 -43 -18 -81 -38 -38 -87 -56 -87 -33 0 20
-53 65 -58 50 -2 -7 -24 -12 -53 -12 -44 0 -49 2 -49 23 -1 18 -4 16 -20 -15
-11 -20 -45 -61 -76 -90 -31 -29 -62 -58 -68 -64 -6 -6 -23 -18 -38 -28 -16
-10 -28 -23 -28 -28 0 -5 -8 -17 -17 -26 -12 -13 -32 -16 -77 -15 -34 2 -62 7
-64 13 -2 5 -18 10 -36 10 -25 0 -35 -6 -44 -25 -7 -14 -12 -31 -12 -36 0 -6
-7 -17 -15 -25 -8 -9 -18 -27 -22 -42 -7 -28 -25 -52 -40 -52 -4 0 -21 -11
-37 -25 -16 -14 -33 -25 -37 -25 -4 0 -15 -8 -25 -17 -30 -30 -184 -36 -184
-7 0 8 -3 13 -7 13 -23 -4 -38 7 -105 72 -98 94 -99 95 -129 102 -18 5 -32 1
-47 -13 -22 -21 -52 -27 -52 -10 0 6 -11 10 -25 10 -14 0 -25 5 -25 10 0 6
-11 10 -24 10 -22 0 -40 27 -37 56 2 19 -58 3 -64 -17 -4 -10 -15 -19 -26 -19
-22 0 -26 38 -9 71 7 13 7 19 0 19 -5 0 -10 6 -10 14 0 12 11 21 33 25 4 0 16
10 27 21 30 30 110 25 110 -6 0 -18 15 -18 34 1 20 20 44 19 48 -2 3 -14 11
-10 41 20 21 20 51 39 65 42 15 2 31 11 37 18 6 8 20 17 33 21 12 4 22 14 22
22 0 8 7 17 15 20 8 4 15 12 15 18 0 7 11 18 25 24 14 6 25 16 25 21 0 15 67
31 128 31 28 0 52 5 52 10 0 17 97 12 104 -5 3 -9 18 -15 36 -15 25 0 30 4 30
25 0 28 49 85 73 85 18 0 30 -26 22 -51 -4 -12 -1 -21 9 -25 9 -3 16 -11 16
-18 0 -6 11 -24 25 -40 l25 -29 -7 79 c-3 43 -11 82 -17 86 -8 5 -7 13 2 28 6
11 12 26 12 35 0 8 10 20 22 26 12 6 31 20 42 31 12 10 27 16 36 12 8 -3 23
-9 33 -11 9 -3 17 -9 17 -13 0 -5 17 -14 38 -21 20 -6 40 -16 43 -21 3 -5 25
-12 48 -15 42 -6 46 -3 41 40 -1 10 5 29 14 42 15 22 14 24 -15 34 -16 5 -37
17 -45 26 -8 8 -26 15 -40 15 -43 0 -29 37 38 102 l61 60 55 -4 c31 -3 58 -11
63 -19 5 -8 9 -10 9 -6 0 12 -22 51 -33 58 -12 8 1 32 13 24 4 -3 10 2 14 10
8 21 63 19 75 -2 10 -17 10 -17 11 0 0 22 16 39 56 60 17 9 36 23 44 32 7 8
20 13 30 10 11 -3 33 13 68 50 29 31 64 60 77 65 25 9 35 30 15 30 -5 0 -10
-4 -10 -10 0 -18 -45 -10 -58 10 -7 11 -23 20 -37 20 -14 0 -25 5 -25 10 0 6
-9 10 -20 10 -11 0 -20 -6 -20 -13 0 -7 -15 -30 -34 -50 -25 -27 -46 -39 -85
-48 -28 -6 -51 -15 -51 -19 0 -5 -17 -27 -39 -50 -31 -32 -50 -43 -95 -52 -31
-7 -56 -16 -56 -20 0 -4 -31 -8 -70 -8 -40 0 -70 4 -70 10 0 28 -46 3 -107
-58 -88 -88 -140 -117 -222 -126 -36 -3 -80 -12 -98 -18 -29 -10 -36 -10 -43
2 -6 10 -10 11 -10 3 0 -7 -18 -17 -40 -23 -22 -6 -40 -15 -40 -20 0 -4 -14
-11 -30 -15 -17 -4 -36 -12 -43 -18 -17 -17 -65 -37 -87 -37 -11 0 -20 -5 -20
-11 0 -5 -13 -15 -30 -20 -16 -6 -30 -15 -30 -19 0 -5 -25 -14 -55 -21 -30 -7
-55 -16 -55 -21 0 -4 -24 -8 -53 -8 -29 0 -79 -5 -111 -11 -61 -11 -276 5
-276 21 0 18 -68 24 -288 25 -146 1 -236 5 -240 12 -9 13 -68 33 -98 33 -13 0
-24 4 -24 9 0 5 -22 14 -50 21 -27 7 -50 16 -50 20 0 19 -71 30 -186 30 -68 0
-124 4 -124 8 0 4 -34 14 -77 21 -42 7 -83 16 -92 21 -9 4 -36 14 -61 21 -25
7 -51 19 -57 25 -7 7 -31 15 -53 19 -22 4 -40 10 -40 15 0 4 -35 13 -77 20
-43 7 -81 16 -84 21 -3 5 -43 14 -90 20 -46 6 -86 15 -89 18 -3 4 -33 12 -66
18 -34 6 -72 20 -84 30 -12 10 -34 28 -48 40 -15 13 -33 23 -39 23 -7 0 -13 6
-13 13 0 8 -3 8 -9 -2 -8 -12 -12 -12 -25 -2 -11 9 -16 10 -16 2 0 -26 -51
-10 -89 29 -36 37 -40 39 -70 29 -17 -6 -31 -15 -31 -20 0 -16 -100 -10 -116
6 -9 8 -20 15 -25 15 -14 0 9 -40 27 -47 16 -6 20 -83 4 -83 -5 0 -10 -11 -10
-24 0 -31 -20 -88 -38 -105 -12 -12 -15 -12 -23 0 -7 12 -11 12 -18 1 -6 -9
-52 -16 -152 -23 -79 -5 -146 -14 -150 -20 -7 -12 -89 -15 -98 -3 -3 5 -37 25
-76 44 -38 19 -72 37 -75 41 -3 3 -16 12 -30 19 -14 7 -31 21 -38 32 -7 10
-20 18 -28 18 -8 0 -14 5 -14 10 0 6 -12 16 -27 23 -16 6 -34 17 -41 24 -7 7
-25 16 -40 19 -15 4 -35 14 -46 23 -12 11 -40 17 -86 18 -50 1 -74 7 -89 20
-11 10 -26 23 -33 29 -32 27 -58 66 -69 103 -7 23 -15 41 -19 41 -4 0 -11 16
-14 35 -6 29 -11 35 -31 35 -20 0 -25 -5 -25 -24 0 -13 -7 -29 -15 -36 -8 -7
-18 -34 -21 -61 -4 -27 -11 -52 -15 -55 -5 -3 -9 -11 -9 -17 0 -8 3 -8 9 2 11
17 51 5 51 -15 0 -8 5 -14 10 -14 6 0 10 4 10 9 0 18 33 21 46 4 13 -17 13
-17 14 0 0 29 34 19 78 -23 39 -36 54 -70 33 -70 -5 0 -13 -9 -16 -20 -3 -11
-13 -20 -21 -20 -8 0 -14 -9 -14 -20 0 -11 5 -20 10 -20 6 0 10 -4 10 -10 0
-14 -32 -12 -50 3 -9 7 -22 27 -29 45 -15 36 -31 42 -31 13 0 -40 -57 -35 -83
7 -6 9 -21 11 -52 6 -45 -6 -115 10 -115 27 0 5 -7 9 -15 9 -32 0 -95 47 -95
70 0 23 36 50 66 50 22 0 26 -4 22 -24 -4 -21 -3 -23 14 -13 44 28 8 127 -47
127 -13 0 -30 7 -39 15 -8 8 -21 15 -28 15 -12 0 -45 25 -95 71 l-22 20 -20
-20 c-12 -12 -21 -28 -21 -36 0 -8 -4 -15 -9 -15 -18 0 -28 -53 -17 -85 6 -16
14 -32 17 -35 11 -9 22 -112 23 -214 1 -70 5 -101 14 -103 19 -7 15 -43 -5
-43 -25 1 -53 24 -53 44 0 9 -12 21 -26 26 -23 9 -25 14 -23 62 4 99 4 100
-38 96 -38 -3 -38 -3 -39 -48 -1 -25 -2 -51 -3 -58 -2 -22 -93 -7 -110 18 -9
13 -24 20 -46 20 -32 0 -33 1 -39 53 -4 32 -2 73 5 102 12 46 13 47 44 42 24
-4 36 0 50 15 17 21 17 21 -22 16 -45 -6 -66 2 -106 44 -29 30 -43 35 -49 16
-3 -7 -29 -12 -69 -12 -44 -1 -74 -7 -92 -19 -15 -9 -27 -13 -27 -7 0 5 -9 10
-20 10 -11 0 -20 -4 -20 -10 0 -17 -40 -11 -62 10 -24 22 -36 18 -93 -35 -22
-20 -53 -47 -69 -60 -28 -22 -30 -28 -31 -98 0 -54 -5 -78 -17 -90 -9 -9 -19
-39 -23 -67 -5 -37 -11 -50 -23 -50 -20 0 -36 34 -53 108 -7 28 -16 52 -21 52
-5 0 -7 9 -3 20 5 15 0 23 -19 32 -14 6 -26 15 -26 19 0 5 -12 15 -27 23 -16
8 -40 26 -55 40 -27 26 -58 34 -58 16 0 -5 -9 -10 -20 -10 -11 0 -20 5 -20 10
0 6 -4 10 -9 10 -6 0 -6 -12 -2 -28 10 -33 -16 -72 -48 -72 -18 0 -19 -2 -5
-27 7 -16 14 -33 14 -39 0 -14 23 -24 57 -24 16 0 27 -7 30 -20 3 -11 12 -20
19 -20 18 0 18 -11 -1 -46 -8 -16 -15 -41 -15 -56 0 -22 -5 -28 -21 -28 -11 0
-18 -3 -16 -7 10 -16 -13 -53 -32 -53 -23 0 -41 22 -23 28 20 6 14 76 -8 95
-11 9 -24 17 -28 17 -5 0 -15 11 -22 25 -7 13 -17 22 -22 19 -4 -3 -8 4 -8 15
0 11 -9 22 -20 26 -11 3 -20 14 -20 23 0 14 -2 14 -9 3 -5 -8 -7 -29 -4 -46 5
-34 -15 -65 -43 -65 -20 0 -39 -21 -38 -40 1 -26 15 -60 25 -60 12 0 12 -56
-1 -80 -7 -13 -7 -21 0 -25 15 -9 12 -35 -4 -35 -15 0 -26 -21 -26 -50 0 -17
-19 -30 -44 -30 -12 0 -37 104 -34 140 3 39 -3 60 -17 60 -8 0 -15 -4 -15 -9
0 -5 -10 -11 -22 -14 -24 -7 -51 10 -42 24 3 5 -3 12 -13 16 -10 4 -20 9 -23
12 -3 3 -21 14 -40 24 -19 10 -27 15 -17 13 14 -4 32 25 95 157 748 1552 2260
2559 3972 2647 191 10 463 3 675 -16z m5350 -744 c82 -129 157 -260 167 -289
26 -74 26 -186 -1 -271 -72 -229 -338 -460 -623 -540 -94 -27 -235 -36 -310
-21 -71 15 -165 61 -200 98 -37 39 -357 546 -351 556 3 5 13 1 23 -8 17 -15
51 5 561 326 299 188 550 348 558 355 11 10 12 16 3 27 -15 18 -2 32 14 15 6
-7 78 -119 159 -248z m-11802 -398 c-4 -15 79 -70 452 -301 251 -155 460 -279
464 -276 5 2 84 127 176 276 l168 271 -24 19 c-54 42 -1 14 146 -77 86 -53
154 -99 151 -101 -2 -2 -13 1 -25 9 -13 8 -24 9 -29 3 -5 -6 -112 -176 -237
-380 -125 -203 -232 -374 -238 -380 -6 -7 -8 -1 -3 16 6 26 -12 38 -542 365
-301 186 -555 342 -564 348 -14 8 -21 6 -31 -8 -8 -11 -16 -15 -19 -10 -7 11
144 254 153 248 4 -2 5 -12 2 -22z m10440 -1169 c-7 -2 -19 -2 -25 0 -7 3 -2
5 12 5 14 0 19 -2 13 -5z m122 -23 c-3 -5 -14 -10 -23 -9 -14 0 -13 2 3 9 27
11 27 11 20 0z m-57 -7 c-10 -2 -26 -2 -35 0 -10 3 -2 5 17 5 19 0 27 -2 18
-5z m-88 -17 c0 -2 -8 -10 -17 -17 -16 -13 -17 -12 -4 4 13 16 21 21 21 13z
m-91 -40 c8 -13 12 -28 10 -34 -2 -5 -11 6 -20 24 -19 38 -9 47 10 10z m41
-20 c0 -3 -4 -8 -10 -11 -5 -3 -10 -1 -10 4 0 6 5 11 10 11 6 0 10 -2 10 -4z
m-9096 -332 c3 -8 2 -12 -4 -9 -6 3 -10 10 -10 16 0 14 7 11 14 -7z m105 -46
c0 -16 -2 -18 -6 -8 -3 8 -11 18 -17 22 -7 5 -4 8 7 8 11 0 17 -7 16 -22z m36
4 c0 -9 -4 -23 -9 -30 -4 -6 -4 -18 0 -24 5 -10 4 -10 -5 -2 -7 6 -9 23 -5 42
7 34 22 45 19 14z m-292 1 c-7 -2 -19 -2 -25 0 -7 3 -2 5 12 5 14 0 19 -2 13
-5z m544 1 c-3 -3 -12 -4 -19 -1 -8 3 -5 6 6 6 11 1 17 -2 13 -5z m-314 -31
c-7 -2 -13 -12 -13 -20 0 -9 -3 -14 -6 -10 -10 10 4 37 18 36 10 0 10 -2 1 -6z
m9269 -38 c-6 -34 -12 -32 -12 6 0 16 4 28 9 25 4 -3 6 -17 3 -31z m-9612 12
c0 -2 -10 -12 -22 -23 l-23 -19 19 23 c18 21 26 27 26 19z m9644 -52 l17 -30
-20 24 c-12 13 -21 28 -21 34 0 12 0 11 24 -28z m-9151 -27 c-4 -21 -11 -28
-27 -27 -15 1 -16 3 -4 6 9 2 19 16 23 30 8 33 15 26 8 -9z m9088 9 c-10 -9
-11 -8 -5 6 3 10 9 15 12 12 3 -3 0 -11 -7 -18z m-9135 -14 c-10 -10 -19 5
-10 18 6 11 8 11 12 0 2 -7 1 -15 -2 -18z m9259 -21 c-3 -3 -11 0 -18 7 -9 10
-8 11 6 5 10 -3 15 -9 12 -12z m-9813 -33 c-3 -21 -7 -27 -13 -18 -4 7 -3 21
2 31 14 25 16 23 11 -13z m9728 -39 c0 -5 -2 -10 -4 -10 -3 0 -8 5 -11 10 -3
6 -1 10 4 10 6 0 11 -4 11 -10z m50 -42 c0 -6 -6 -5 -15 2 -8 7 -15 14 -15 16
0 2 7 1 15 -2 8 -4 15 -11 15 -16z m145 12 c-3 -5 -14 -10 -23 -9 -14 0 -13 2
3 9 27 11 27 11 20 0z m-64 -47 c-12 -20 -14 -14 -5 12 4 9 9 14 11 11 3 -2 0
-13 -6 -23z m-61 -59 c0 -74 -14 -69 -17 6 -1 37 2 58 7 55 6 -4 10 -31 10
-61z m-9876 21 c-4 -8 -11 -15 -16 -15 -6 0 -5 6 2 15 7 8 14 15 16 15 2 0 1
-7 -2 -15z m-87 -49 c4 -3 -16 -6 -43 -6 -28 0 -56 -6 -64 -12 -8 -7 -7 -4 2
7 12 15 27 20 58 18 23 0 44 -4 47 -7z m63 4 c0 -5 -10 -10 -22 -9 -22 0 -22
1 -3 9 11 5 21 9 23 9 1 1 2 -3 2 -9z m-255 -39 c3 -6 -3 -9 -14 -8 -11 0 -17
5 -15 9 7 11 22 10 29 -1z m10189 -6 c-4 -8 -8 -15 -10 -15 -2 0 -4 7 -4 15 0
8 4 15 10 15 5 0 7 -7 4 -15z m-10124 1 c0 -2 -8 -10 -17 -17 -16 -13 -17 -12
-4 4 13 16 21 21 21 13z m-72 -51 c4 -20 3 -20 -11 -1 -7 10 -19 16 -25 12 -7
-4 -12 -2 -12 4 0 20 45 6 48 -15z m10152 -21 c0 -2 -7 -4 -15 -4 -8 0 -15 4
-15 10 0 5 7 7 15 4 8 -4 15 -8 15 -10z m-10199 -77 c-13 -13 -15 11 -4 40 7
16 8 15 11 -6 2 -13 -1 -28 -7 -34z m10145 17 c-6 -19 -12 -28 -14 -20 -3 13
14 56 22 56 2 0 -2 -16 -8 -36z m868 8 c2 -4 -4 -8 -14 -8 -10 0 -16 4 -14 8
3 4 9 8 14 8 5 0 11 -4 14 -8z m169 1 c-7 -2 -19 -2 -25 0 -7 3 -2 5 12 5 14
0 19 -2 13 -5z m-126 -9 c-3 -3 -12 -4 -19 -1 -8 3 -5 6 6 6 11 1 17 -2 13 -5z
m136 -24 c3 -11 1 -18 -4 -14 -5 3 -9 12 -9 20 0 20 7 17 13 -6z m-1083 -80
c0 -5 -5 -10 -11 -10 -5 0 -7 5 -4 10 3 6 8 10 11 10 2 0 4 -4 4 -10z m1271
-42 c-11 -11 -13 -10 -9 2 3 8 -2 24 -10 35 -13 16 -11 15 8 -2 20 -19 22 -25
11 -35z m-11437 27 c-4 -8 -11 -15 -16 -15 -6 0 -5 6 2 15 7 8 14 15 16 15 2
0 1 -7 -2 -15z m10896 -60 c-7 -8 -17 -15 -23 -15 -6 0 -2 7 9 15 25 19 30 19
14 0z m-85 -5 c3 -5 1 -10 -4 -10 -6 0 -11 5 -11 10 0 6 2 10 4 10 3 0 8 -4
11 -10z m42 -16 c-3 -3 -12 -4 -19 -1 -8 3 -5 6 6 6 11 1 17 -2 13 -5z m474
-37 c-10 -9 -11 -8 -5 6 3 10 9 15 12 12 3 -3 0 -11 -7 -18z m-11459 -27 c-2
-16 -8 -30 -13 -30 -5 0 -6 7 -4 15 3 8 7 22 10 30 8 25 12 17 7 -15z m11395
14 c-3 -3 -12 -4 -19 -1 -8 3 -5 6 6 6 11 1 17 -2 13 -5z m-37 -8 c0 -2 -9 -6
-20 -9 -11 -3 -20 -1 -20 4 0 5 9 9 20 9 11 0 20 -2 20 -4z m-997 -36 c-3 -12
-8 -19 -11 -16 -5 6 5 36 12 36 2 0 2 -9 -1 -20z m805 13 c-10 -2 -26 -2 -35
0 -10 3 -2 5 17 5 19 0 27 -2 18 -5z m125 0 c-7 -2 -21 -2 -30 0 -10 3 -4 5
12 5 17 0 24 -2 18 -5z m-250 -10 c-7 -2 -19 -2 -25 0 -7 3 -2 5 12 5 14 0 19
-2 13 -5z m-43 -7 c0 -2 -13 -6 -29 -8 -17 -2 -28 -1 -25 4 5 8 54 12 54 4z
m-153 -32 c-3 -3 -12 -4 -19 -1 -8 3 -5 6 6 6 11 1 17 -2 13 -5z m-47 -8 c0
-2 -9 -6 -20 -9 -11 -3 -20 -1 -20 4 0 5 9 9 20 9 11 0 20 -2 20 -4z m-10800
-36 c0 -11 -2 -20 -4 -20 -2 0 -6 9 -9 20 -3 11 -1 20 4 20 5 0 9 -9 9 -20z
m945 0 c-3 -5 -16 -10 -28 -9 -21 0 -21 1 -2 9 28 12 37 12 30 0z m-74 -23
c-10 -9 -11 -8 -5 6 3 10 9 15 12 12 3 -3 0 -11 -7 -18z m124 13 c3 -6 -1 -7
-9 -4 -18 7 -21 14 -7 14 6 0 13 -4 16 -10z m105 6 c0 -2 -11 -6 -25 -8 -14
-3 -25 -1 -25 3 0 5 11 9 25 9 14 0 25 -2 25 -4z m9529 0 c-11 -9 -69 -15 -64
-6 3 6 20 10 37 10 17 0 29 -2 27 -4z m-9336 -186 c52 -58 51 -57 37 -95 -13
-35 -32 -53 -64 -61 -14 -3 -30 -13 -35 -21 -5 -9 -26 -16 -57 -18 -54 -3 -84
-12 -84 -26 0 -5 -10 -8 -22 -8 -17 1 -19 2 -5 6 22 6 25 73 3 73 -17 0 -29
27 -15 36 6 3 8 15 5 27 -4 15 -2 17 7 8 8 -8 8 -17 1 -29 -7 -13 -4 -22 14
-40 22 -22 23 -22 18 -2 -3 11 -8 29 -11 39 -3 11 -2 22 4 25 5 3 8 17 6 31
-1 14 2 25 6 25 5 0 8 3 7 8 -1 4 4 48 12 97 l13 91 56 -57 c31 -31 77 -80
104 -109z m-1253 139 c0 -14 -16 -11 -29 5 -10 12 -8 13 8 9 12 -3 21 -9 21
-14z m760 -4 c-7 -9 -15 -13 -17 -11 -7 7 7 26 19 26 6 0 6 -6 -2 -15z m9575
5 c-28 -12 -37 -12 -30 0 3 6 16 10 28 9 21 0 21 -1 2 -9z m-71 -37 c73 -370
90 -927 41 -1353 -145 -1263 -796 -2403 -1815 -3180 -1161 -884 -2693 -1170
-4105 -765 -962 276 -1811 860 -2425 1666 -107 139 -266 381 -335 507 l-50 91
-75 3 c-41 2 33 5 165 6 l240 2 -2 692 c-2 487 -6 699 -14 714 -6 12 -35 35
-65 50 l-54 28 0 117 c0 127 4 136 66 156 86 29 120 119 68 181 -15 17 -33 32
-40 32 -8 0 -14 4 -14 10 0 5 -19 15 -42 22 -70 20 -69 19 -66 198 l3 160 -87
0 -88 0 0 -174 0 -174 -33 -6 c-54 -10 -121 -69 -130 -112 -6 -36 13 -93 34
-99 9 -3 20 -12 22 -19 3 -8 21 -17 39 -21 56 -13 66 -34 66 -138 0 -51 -2
-100 -4 -109 -3 -9 -29 -31 -59 -48 -30 -17 -57 -40 -60 -50 -4 -11 -11 -20
-16 -20 -5 0 -10 -219 -11 -542 l-3 -543 -72 180 c-245 617 -354 1270 -323
1933 6 117 8 217 6 221 -6 10 237 7 282 -3 27 -6 33 -12 29 -27 -4 -15 0 -19
24 -19 16 0 29 -4 29 -9 0 -5 24 -15 53 -21 28 -7 54 -16 57 -21 3 -4 28 -14
55 -21 28 -7 52 -15 55 -19 5 -6 42 -14 115 -26 17 -3 32 -9 35 -13 8 -13 117
-30 187 -30 35 0 71 -4 81 -9 9 -5 38 -15 65 -23 26 -7 47 -16 47 -21 0 -5 12
-7 27 -5 22 2 30 11 43 48 17 50 45 64 67 34 10 -13 25 -18 52 -18 31 1 40 -3
44 -18 10 -37 -2 -48 -57 -48 -41 0 -57 -5 -83 -28 l-33 -27 108 8 c59 4 175
6 257 2 309 -11 573 -3 587 18 4 7 82 11 215 11 122 1 211 5 215 11 4 6 23 5
53 -3 25 -7 59 -12 75 -12 17 0 39 -9 50 -20 11 -11 27 -20 35 -20 8 0 15 -4
15 -10 0 -5 18 -10 40 -10 22 0 40 4 40 9 0 5 9 13 20 16 11 3 20 13 20 22 0
9 8 21 17 28 16 12 16 14 0 30 -14 14 -23 15 -48 6 -29 -10 -31 -9 -26 9 3 13
0 20 -9 20 -8 0 -14 -4 -14 -10 0 -5 -16 -10 -35 -10 -21 0 -35 5 -35 13 0 8
-3 9 -8 1 -4 -6 -22 -14 -39 -17 -30 -6 -33 -4 -33 18 0 14 -4 25 -9 25 -4 0
-6 -11 -4 -24 4 -21 0 -24 -38 -30 -28 -4 -45 -3 -47 4 -2 5 -10 10 -18 10 -8
0 -14 5 -14 10 0 6 -16 10 -35 10 -19 0 -35 5 -35 10 0 6 5 10 10 10 6 0 10 5
10 10 0 6 -9 10 -19 10 -11 0 -22 4 -25 8 -7 12 -109 -3 -114 -16 -2 -7 -12
-12 -23 -12 -11 0 -27 -9 -36 -20 -10 -11 -25 -20 -35 -20 -10 0 -18 -4 -18
-10 0 -5 -7 -10 -15 -10 -8 0 -15 -7 -15 -16 0 -13 -7 -15 -31 -10 -17 3 -44
6 -60 6 -42 0 -35 46 9 61 7 2 -3 12 -22 20 -35 16 -36 16 -36 -3 0 -19 -4
-20 -42 -14 -24 4 -64 10 -90 12 -42 4 -47 3 -50 -18 -3 -20 -8 -23 -38 -20
-19 1 -38 8 -42 15 -5 8 -9 5 -14 -8 -10 -25 -34 -44 -56 -45 -27 0 -25 74 2
93 l21 14 -21 6 c-29 8 -26 37 5 37 18 0 23 4 19 15 -4 8 -12 15 -19 15 -8 0
-17 9 -20 20 -6 18 -8 18 -21 5 -26 -26 -51 -19 -56 15 -4 23 -1 30 9 26 15
-6 29 3 70 44 23 23 26 24 37 7 16 -21 36 -22 36 -2 0 8 9 15 20 15 15 0 20
-7 20 -25 0 -26 1 -26 58 -20 49 6 60 4 81 -14 30 -26 41 -27 34 -1 -4 16 0
20 20 20 14 0 33 -8 43 -17 13 -13 19 -14 22 -5 5 16 32 16 32 0 0 -13 11 -16
95 -18 100 -4 125 -1 125 15 0 18 26 20 34 3 5 -10 7 -10 12 0 3 6 14 12 25
12 10 0 19 -6 19 -12 0 -10 3 -9 9 1 5 7 26 15 47 17 24 2 45 11 55 23 17 20
49 19 77 -2 9 -7 11 -6 7 6 -4 9 0 17 12 21 21 7 84 -9 93 -23 3 -6 24 -14 47
-19 35 -8 45 -7 62 9 11 11 35 22 53 25 18 4 38 12 43 19 6 6 22 15 38 19 15
3 27 13 27 21 0 10 10 15 30 15 17 0 39 9 50 20 19 19 70 28 70 12 0 -4 -4
-21 -9 -37 -6 -22 -4 -34 5 -43 16 -14 64 -16 64 -2 0 6 7 10 15 10 8 0 15 -4
15 -10 0 -5 10 -20 21 -31 17 -17 23 -19 31 -8 8 12 10 12 15 1 9 -23 62 -72
77 -72 8 0 16 -5 18 -10 2 -6 23 -12 48 -13 42 -2 44 -1 54 32 7 23 19 38 38
45 15 6 28 14 28 18 0 4 6 8 14 8 9 0 12 8 8 25 -4 25 -3 25 39 19 42 -7 78
-35 79 -61 0 -7 1 -13 3 -14 1 0 45 -3 97 -5 52 -3 96 -10 98 -15 2 -5 10 -2
19 6 11 12 30 14 84 10 39 -3 75 -6 82 -8 6 -1 13 8 15 21 2 12 6 22 10 22 4
0 20 11 36 25 33 28 49 31 69 11 8 -8 47 -17 97 -21 68 -5 88 -10 105 -28 36
-36 66 -56 96 -62 16 -4 29 -11 29 -16 0 -5 4 -9 10 -9 5 0 7 7 4 15 -4 9 0
15 9 15 9 0 22 6 29 13 58 54 132 75 144 42 4 -10 20 -15 49 -15 25 0 50 6 59
15 32 32 43 19 45 -55 1 -42 -3 -70 -9 -70 -16 0 -12 -47 5 -54 8 -3 15 -15
15 -27 0 -20 -4 -21 -55 -17 -48 4 -55 2 -55 -13 0 -12 -5 -16 -15 -13 -8 4
-15 1 -15 -6 0 -9 11 -11 38 -6 20 3 74 9 120 12 45 4 82 10 82 14 0 4 60 13
133 20 72 7 137 16 142 20 6 4 17 8 25 8 8 0 58 3 110 5 159 8 280 19 280 27
0 4 64 10 143 13 243 12 352 20 357 27 3 3 86 12 184 19 98 7 186 16 195 21 9
5 93 14 186 20 94 7 172 16 173 21 2 5 36 9 75 9 84 0 247 20 247 30 0 4 53
12 118 19 64 7 122 16 127 20 6 4 48 14 95 21 47 7 92 17 100 21 8 4 54 13
103 19 48 7 90 16 93 21 3 5 16 9 30 9 37 0 154 24 154 31 0 4 31 10 69 14 38
4 81 13 95 20 14 8 63 19 109 26 45 6 87 15 92 19 6 5 48 14 95 20 47 6 87 15
90 19 3 5 49 14 103 21 53 7 97 16 97 20 0 4 21 10 48 13 116 15 147 20 152
27 3 5 41 12 85 18 126 15 123 15 129 -15z m-9564 3 c0 -3 -4 -8 -10 -11 -5
-3 -10 -1 -10 4 0 6 5 11 10 11 6 0 10 -2 10 -4z m325 -5 c3 -5 1 -12 -5 -16
-5 -3 -10 1 -10 9 0 18 6 21 15 7z m-361 -45 c-3 -15 -8 -25 -11 -23 -2 3 -1
17 3 31 3 15 8 25 11 23 2 -3 1 -17 -3 -31z m116 4 c0 -5 -5 -10 -11 -10 -5 0
-7 5 -4 10 3 6 8 10 11 10 2 0 4 -4 4 -10z m1 -38 c-13 -2 -27 0 -32 5 -6 6 3
7 23 4 28 -4 29 -6 9 -9z m239 -12 c0 -5 -5 -10 -11 -10 -5 0 -7 5 -4 10 3 6
8 10 11 10 2 0 4 -4 4 -10z m-910 -35 c-7 -14 -17 -25 -21 -25 -5 0 0 13 9 29
20 36 31 32 12 -4z m855 -4 c-3 -6 -11 -8 -17 -5 -6 4 -5 9 3 15 16 10 23 4
14 -10z m-902 -18 c-7 -2 -21 -2 -30 0 -10 3 -4 5 12 5 17 0 24 -2 18 -5z
m447 -93 c0 -9 -48 -1 -55 9 -2 4 9 5 26 3 16 -2 29 -8 29 -12z m100 -15 c0
-19 -4 -35 -9 -35 -4 0 -6 12 -3 26 3 16 -1 30 -9 35 -11 7 -10 9 4 9 13 0 17
-8 17 -35z m-305 15 c4 -6 -11 -7 -42 -3 -63 8 -67 13 -10 13 25 0 49 -4 52
-10z m392 -32 c-3 -8 -6 -5 -6 6 -1 11 2 17 5 13 3 -3 4 -12 1 -19z m194 -5
c13 -16 12 -17 -3 -4 -10 7 -18 15 -18 17 0 8 8 3 21 -13z m109 -3 c0 -5 -7
-7 -15 -4 -8 4 -15 8 -15 10 0 2 7 4 15 4 8 0 15 -4 15 -10z m-357 -27 c-7 -2
-21 -2 -30 0 -10 3 -4 5 12 5 17 0 24 -2 18 -5z m195 -30 c-10 -2 -26 -2 -35
0 -10 3 -2 5 17 5 19 0 27 -2 18 -5z m155 0 c-7 -2 -21 -2 -30 0 -10 3 -4 5
12 5 17 0 24 -2 18 -5z m-248 -23 c-3 -5 -12 -10 -18 -10 -7 0 -6 4 3 10 19
12 23 12 15 0z m-35 -14 c0 -2 -7 -7 -16 -10 -8 -3 -12 -2 -9 4 6 10 25 14 25
6z m123 -23 c-7 -2 -21 -2 -30 0 -10 3 -4 5 12 5 17 0 24 -2 18 -5z m-340 -30
c-7 -2 -19 -2 -25 0 -7 3 -2 5 12 5 14 0 19 -2 13 -5z m160 0 c-7 -2 -21 -2
-30 0 -10 3 -4 5 12 5 17 0 24 -2 18 -5z m-203 -7 c0 -2 -13 -6 -29 -8 -17 -2
-28 -1 -25 4 5 8 54 12 54 4z m127 -2 c-3 -3 -12 -4 -19 -1 -8 3 -5 6 6 6 11
1 17 -2 13 -5z m10943 -2708 c0 -5 -10 0 -23 12 -13 12 -28 22 -34 22 -5 0
-50 -42 -100 -93 -145 -150 -195 -281 -147 -383 31 -65 106 -95 172 -69 50 20
66 42 140 196 89 185 164 253 305 279 166 31 398 -93 477 -253 72 -147 53
-327 -51 -488 -39 -60 -159 -187 -243 -258 -37 -31 -37 -33 -20 -52 30 -34 6
-33 -33 1 -169 149 -241 215 -237 219 2 2 17 -5 33 -17 l29 -21 84 64 c101 75
145 124 192 214 88 168 63 281 -75 341 -104 44 -163 5 -234 -158 -56 -127 -94
-190 -143 -233 -76 -67 -169 -88 -283 -65 -155 33 -277 115 -336 228 -25 48
-28 62 -28 158 0 97 2 110 32 172 49 104 103 176 212 283 90 89 99 101 86 115
-8 9 -15 21 -15 26 0 5 54 -45 120 -111 66 -66 120 -124 120 -129z m-11505 78
c173 -45 316 -174 376 -339 18 -48 23 -89 27 -207 l4 -148 26 0 c14 0 23 -2
20 -5 -8 -8 -348 -37 -362 -31 -6 2 3 5 20 5 l32 1 12 101 c21 167 2 244 -82
329 -60 63 -135 93 -242 98 -167 8 -320 -50 -435 -165 -83 -83 -111 -147 -111
-253 0 -145 59 -233 214 -319 90 -49 98 -52 115 -37 69 62 -46 -84 -167 -213
-24 -25 -38 -36 -33 -25 10 20 3 26 -85 79 -124 74 -197 147 -239 239 -117
256 -44 525 196 717 115 92 283 165 434 189 75 11 201 4 280 -16z m10915 -741
c88 -58 158 -108 155 -111 -2 -3 -16 3 -30 12 l-25 16 -179 -269 -180 -269 97
-64 c53 -36 109 -72 123 -81 l26 -17 117 176 c65 97 116 177 114 178 -2 2 -14
10 -28 19 -13 9 -19 17 -12 17 16 0 285 -180 279 -187 -3 -2 -17 3 -31 12
l-25 17 -117 -176 c-65 -97 -115 -178 -113 -180 15 -13 253 -168 264 -172 9
-4 67 75 185 251 94 141 173 262 176 268 2 7 -8 20 -23 30 -16 10 -21 17 -12
15 22 -4 319 -201 319 -212 0 -4 -11 -1 -25 8 -13 9 -27 16 -30 16 -2 0 -113
-162 -245 -360 -140 -210 -245 -358 -251 -354 -8 4 -7 10 0 17 6 6 11 15 11
19 0 4 -248 173 -550 375 -510 339 -551 365 -564 348 -7 -10 -16 -14 -19 -8
-3 5 102 171 233 368 l240 360 -25 15 c-22 13 -33 30 -20 30 3 0 77 -48 165
-107z m-10377 -198 c188 -40 326 -168 367 -344 8 -33 11 -88 8 -145 -10 -172
-76 -307 -222 -451 -159 -157 -343 -243 -541 -252 -168 -8 -297 34 -403 132
-106 98 -147 208 -140 369 4 81 11 116 35 176 64 164 201 314 382 419 169 98
348 131 514 96z m9774 -513 c-13 -15 34 -62 470 -470 406 -381 486 -452 499
-441 8 6 17 9 21 5 4 -3 -31 -45 -77 -94 -46 -48 -92 -96 -102 -106 -20 -22
-38 -14 -19 8 10 12 -3 28 -71 93 -204 194 -334 313 -340 310 -16 -5 -349
-368 -346 -377 2 -5 95 -95 207 -200 190 -178 205 -190 221 -175 10 9 20 13
23 8 7 -11 -199 -230 -208 -221 -5 4 -2 14 4 22 10 12 -72 93 -470 467 -415
389 -484 451 -499 441 -10 -6 -20 -8 -23 -5 -9 8 195 223 205 217 5 -3 3 -13
-4 -21 -11 -14 4 -32 107 -130 66 -62 144 -135 174 -161 l54 -47 119 125 c65
69 145 154 177 190 l58 65 -172 162 c-154 145 -174 160 -187 146 -9 -8 -18
-11 -21 -6 -8 12 193 224 205 217 5 -4 4 -13 -5 -22z m-8957 -344 c0 -5 -9 -3
-20 4 -18 12 -51 -18 -400 -367 -209 -209 -380 -383 -380 -387 0 -11 441 -458
453 -458 6 0 20 8 31 17 12 9 -40 -44 -114 -120 -73 -75 -136 -134 -140 -131
-3 3 5 13 16 23 21 16 16 22 -297 339 -176 178 -319 328 -319 334 0 6 8 4 18
-6 18 -15 41 6 493 453 384 380 472 471 462 482 -7 7 -13 18 -13 23 0 6 47
-36 105 -94 58 -58 105 -108 105 -112z m593 -553 c59 -43 107 -82 107 -87 0
-5 -8 -4 -19 1 -14 8 -22 6 -33 -7 -9 -9 -149 -201 -313 -427 -164 -225 -302
-415 -307 -422 -6 -8 69 -68 247 -198 141 -102 262 -188 270 -191 7 -3 19 4
25 16 6 12 14 19 17 16 6 -6 -208 -305 -220 -305 -4 -1 0 11 9 25 15 22 15 27
3 38 -8 7 -165 122 -349 256 -184 134 -343 250 -353 258 -21 19 -15 27 10 14
16 -8 67 57 409 527 343 470 390 538 378 552 -17 20 -18 35 -1 22 6 -5 60 -45
120 -88z m7716 -89 c28 -93 49 -172 46 -174 -2 -3 -9 8 -15 23 l-11 28 -95 -7
c-131 -10 -182 -27 -244 -83 -74 -67 -103 -128 -108 -235 -3 -69 0 -101 16
-155 44 -141 153 -279 274 -343 53 -29 76 -35 145 -38 94 -5 147 9 218 58 66
45 100 98 134 210 36 116 37 127 11 135 -17 5 -29 25 -15 25 2 0 71 -36 152
-81 147 -80 189 -108 147 -95 -19 6 -25 -2 -54 -86 -49 -139 -86 -202 -154
-266 -279 -261 -710 -166 -961 213 -96 145 -138 276 -137 435 1 278 171 480
454 540 51 11 104 23 116 26 20 4 23 9 17 32 -4 17 -3 23 3 17 6 -5 33 -86 61
-179z m-6683 -582 l384 -195 12 25 c6 14 15 26 20 26 4 0 -28 -71 -71 -157
-77 -151 -111 -212 -97 -170 3 9 9 23 12 31 4 10 -75 55 -281 161 -158 80
-288 145 -289 143 -9 -12 -136 -261 -134 -263 2 -1 88 -45 191 -97 l188 -95
14 26 c8 14 14 22 14 16 0 -5 -34 -75 -75 -155 -41 -80 -72 -136 -68 -125 3
11 8 27 10 35 3 11 -48 42 -184 112 l-188 97 -78 -150 c-43 -83 -77 -152 -75
-153 2 -2 133 -69 291 -150 l287 -147 15 28 c8 15 15 24 16 19 0 -11 -169
-336 -176 -336 -2 0 2 13 11 29 l15 30 -223 114 c-122 63 -295 151 -384 196
-148 75 -200 110 -140 96 20 -5 44 39 320 582 261 513 297 588 283 599 -16 11
-21 24 -10 24 4 0 179 -88 390 -196z m5535 82 c-10 -12 -10 -19 1 -34 7 -10
211 -242 452 -515 375 -423 442 -495 457 -487 10 6 20 7 22 3 3 -5 -58 -41
-134 -81 -100 -52 -139 -68 -139 -57 0 8 5 15 10 15 6 0 10 5 10 11 0 11 -168
209 -177 209 -14 0 -393 -202 -393 -209 0 -10 48 -227 56 -253 4 -15 9 -16 26
-7 15 8 19 8 16 -1 -5 -16 -236 -135 -245 -127 -3 4 1 13 11 20 17 13 9 52
-135 680 l-153 666 -25 -6 c-15 -3 -22 -2 -18 3 11 12 361 191 366 187 2 -1
-2 -9 -8 -17z m-4629 -437 c113 -24 197 -75 336 -204 62 -57 63 -58 84 -39 21
19 21 19 7 -2 -74 -106 -203 -274 -207 -269 -3 3 2 13 11 22 15 15 14 20 -16
61 -54 75 -141 148 -204 172 -85 32 -196 26 -276 -15 -70 -35 -150 -117 -194
-201 -80 -150 -96 -345 -39 -471 33 -73 103 -144 174 -176 59 -27 213 -34 287
-14 l50 13 27 85 c14 46 27 91 27 100 1 11 -31 25 -118 52 -66 20 -124 37
-129 37 -5 0 -13 -12 -16 -26 -4 -15 -9 -25 -11 -22 -5 5 85 300 94 311 4 4 6
-5 3 -21 l-4 -28 240 -75 c132 -41 241 -78 241 -84 0 -5 -8 -9 -19 -7 -13 2
-21 -6 -28 -30 -6 -18 -40 -130 -77 -248 -36 -118 -68 -221 -71 -229 -3 -9 2
-12 16 -8 14 3 20 1 17 -6 -2 -7 -57 -25 -123 -40 -229 -54 -437 -24 -600 85
-117 78 -188 183 -220 324 -45 204 28 510 171 709 135 190 361 287 567 244z
m3795 -23 c219 -80 377 -267 450 -533 34 -124 38 -308 9 -413 -67 -245 -250
-400 -469 -400 -308 1 -569 286 -627 689 -22 147 -3 273 61 409 68 142 190
243 330 272 63 13 172 2 246 -24z m-2804 -216 c216 -28 403 -51 417 -53 20 -2
26 4 32 28 11 47 -2 -88 -21 -225 -10 -69 -19 -110 -20 -92 0 18 -6 32 -13 32
-7 0 -150 18 -318 39 -168 22 -306 38 -308 36 -5 -5 -43 -287 -40 -291 4 -2
398 -54 416 -54 7 0 12 13 12 32 0 17 3 29 6 26 3 -4 -2 -70 -12 -147 -10 -77
-21 -136 -24 -131 -5 9 -417 66 -425 59 -9 -9 -45 -323 -38 -329 6 -5 442 -63
623 -83 8 -1 17 10 22 28 6 26 7 24 3 -8 -19 -174 -39 -323 -45 -330 -4 -4 -5
6 -2 23 3 19 0 30 -8 30 -24 0 -806 101 -830 107 -24 6 -24 7 -4 10 27 5 18
-51 109 658 41 325 78 607 81 628 5 29 3 37 -10 37 -8 0 -18 5 -21 10 -9 15
-9 15 418 -40z m1741 15 c40 -8 106 -26 146 -40 89 -30 90 -30 90 -3 0 12 3
19 6 15 4 -3 -11 -84 -32 -179 -28 -124 -40 -164 -44 -143 -5 27 -16 34 -105
75 -91 41 -107 45 -175 45 -101 -1 -163 -29 -234 -106 -102 -109 -139 -276
-101 -453 49 -232 217 -369 415 -337 79 13 121 38 215 125 75 70 79 76 67 96
-7 12 -11 24 -9 27 4 3 76 -108 166 -257 23 -39 29 -64 7 -35 -13 18 -17 16
-83 -43 -159 -140 -250 -178 -416 -170 -77 4 -119 12 -171 32 -226 86 -371
302 -406 602 -28 240 38 451 186 601 134 136 295 186 478 148z m-1617 -867
c-3 -7 -5 -2 -5 12 0 14 2 19 5 13 2 -7 2 -19 0 -25z"/>
<path d="M13276 15516 l-259 -253 149 -91 c82 -51 153 -93 158 -94 9 -3 219
669 214 683 -2 4 -120 -107 -262 -245z"/>
<path d="M5327 14790 c-82 -21 -143 -67 -180 -135 -18 -33 -22 -57 -22 -131 0
-86 2 -94 43 -177 69 -139 192 -255 334 -314 52 -22 79 -27 153 -27 106 -1
151 17 209 86 115 134 71 340 -111 526 -131 133 -302 202 -426 172z"/>
<path d="M7320 12220 c24 -24 26 -53 5 -74 -8 -8 -15 -18 -15 -23 0 -11 -37
-43 -50 -43 -6 0 -10 -4 -10 -10 0 -5 11 -10 24 -10 16 0 27 7 31 22 10 29 56
70 72 64 9 -4 13 3 13 20 0 30 -41 74 -70 74 l-20 0 20 -20z"/>
<path d="M13539 11951 c-9 -20 -23 -32 -44 -36 -16 -4 -24 -9 -17 -12 12 -5
17 -54 7 -65 -12 -12 -54 6 -60 25 -4 14 -8 17 -12 10 -2 -7 -11 -13 -19 -13
-8 0 -17 -13 -21 -30 -6 -35 -34 -46 -87 -36 -34 7 -34 6 -23 -19 7 -13 15
-25 20 -25 11 0 8 -68 -3 -72 -13 -4 71 -98 87 -98 6 0 13 -6 15 -12 6 -17 38
14 38 36 0 22 26 20 50 -4 11 -11 20 -27 20 -35 0 -9 9 -15 25 -15 20 0 25 5
25 24 0 16 7 26 21 29 30 8 57 -12 63 -48 4 -20 17 -37 36 -48 17 -10 30 -22
30 -28 0 -5 6 -9 14 -9 9 0 12 7 9 20 -6 22 18 50 43 50 12 0 14 4 7 13 -6 6
-13 36 -17 65 -6 43 -4 52 9 52 8 0 15 6 15 14 0 8 5 16 11 18 16 5 -1 38 -21
38 -33 0 -86 29 -100 54 -7 14 -19 26 -25 26 -20 0 -45 35 -45 63 0 15 5 27
11 27 6 0 4 7 -5 15 -8 8 -18 24 -21 35 -9 28 -21 25 -36 -9z"/>
<path d="M13191 11453 c-1 -12 4 -25 9 -28 12 -7 12 2 0 30 -8 19 -9 19 -9 -2z"/>
<path d="M13721 11448 c0 -10 -5 -18 -10 -18 -15 0 -20 -41 -6 -47 25 -9 30 1
24 42 -3 22 -7 32 -8 23z"/>
<path d="M12665 11243 c3 -21 15 -46 25 -57 17 -18 18 -17 22 38 3 56 3 56
-26 56 -27 0 -28 -1 -21 -37z"/>
<path d="M15168 13553 l-337 -214 93 -147 c115 -183 134 -196 266 -189 147 8
310 88 423 206 75 79 101 135 95 211 -4 53 -13 72 -94 201 -49 78 -94 144 -99
145 -6 1 -162 -95 -347 -213z"/>
<path d="M5550 10674 c-17 -9 -20 -14 -9 -14 9 0 22 7 29 15 15 18 13 18 -20
-1z"/>
<path d="M7423 10305 c-3 -9 -3 -19 1 -22 3 -4 6 -1 6 5 0 7 7 12 16 12 8 0
12 5 9 10 -9 15 -25 12 -32 -5z"/>
<path d="M7540 10251 c0 -11 29 -35 35 -29 10 9 -7 38 -21 38 -8 0 -14 -4 -14
-9z"/>
<path d="M10030 10220 c0 -13 -7 -20 -20 -20 -11 0 -20 -4 -20 -10 0 -5 -9
-10 -19 -10 -11 0 -22 -6 -24 -12 -4 -10 -8 -9 -17 2 -9 11 -13 12 -17 3 -2
-7 -20 -13 -39 -13 -19 0 -44 -5 -57 -12 -48 -24 -57 -28 -77 -28 -11 0 -20 5
-20 10 0 6 -4 10 -10 10 -5 0 -10 -7 -10 -15 0 -11 -12 -15 -50 -15 -36 0 -52
-4 -56 -15 -4 -8 -18 -15 -33 -15 -14 0 -33 -5 -41 -11 -11 -8 -6 -9 20 -5 19
3 54 8 78 12 23 4 42 10 42 14 0 4 42 13 92 19 51 7 95 16 98 20 3 5 56 14
118 21 108 12 141 23 108 36 -9 3 -16 17 -16 30 0 15 -6 24 -15 24 -8 0 -15
-9 -15 -20z"/>
<path d="M8342 10134 c10 -10 20 -15 24 -12 3 4 -5 12 -18 18 -22 12 -22 12
-6 -6z"/>
<path d="M8502 10130 c7 -11 19 -20 27 -20 11 0 10 5 -4 20 -10 11 -22 20 -27
20 -4 0 -3 -9 4 -20z"/>
<path d="M8550 10133 c0 -5 16 -18 35 -31 34 -22 35 -22 35 -2 0 15 -7 20 -25
20 -14 0 -25 5 -25 10 0 6 -4 10 -10 10 -5 0 -10 -3 -10 -7z"/>
<path d="M7931 10056 c-10 -12 -6 -17 26 -25 21 -6 50 -11 65 -11 14 0 28 -4
30 -9 6 -18 167 -29 363 -25 429 10 908 33 919 45 7 7 -148 1 -244 -10 -41 -5
-120 -5 -174 -1 -62 5 -108 4 -121 -2 -16 -7 -32 -5 -60 6 -36 15 -39 15 -59
-3 -27 -24 -131 -29 -140 -6 -7 19 -60 20 -79 1 -11 -12 -48 -15 -173 -15 -87
0 -163 4 -169 8 -5 5 -35 14 -65 21 -30 7 -59 19 -63 26 -10 18 -41 18 -56 0z"/>
<path d="M9438 10055 c-3 -3 -25 -10 -49 -15 -38 -8 -35 -8 21 -3 72 6 117 22
64 23 -17 0 -33 -2 -36 -5z"/>
<path d="M7259 9833 c-8 -16 -17 -30 -20 -33 -4 -3 -14 -21 -23 -40 -28 -59
-48 -93 -68 -114 -10 -11 -18 -25 -18 -32 0 -6 -6 -17 -14 -23 -8 -7 -18 -25
-21 -41 -3 -16 -13 -31 -21 -34 -8 -3 -14 -12 -14 -20 0 -8 -6 -21 -12 -28
-16 -17 -44 -62 -66 -108 -9 -19 -20 -37 -23 -40 -4 -3 -22 -34 -40 -70 -19
-36 -42 -74 -51 -84 -10 -11 -18 -25 -18 -32 0 -7 -4 -14 -9 -16 -5 -1 -18
-22 -29 -46 l-20 -42 26 -6 c15 -3 34 -9 43 -14 9 -5 54 -14 100 -20 46 -6 86
-15 89 -19 3 -5 46 -14 95 -21 50 -8 92 -16 95 -20 6 -9 115 -30 152 -30 15 0
28 -4 28 -9 0 -4 41 -14 90 -22 50 -7 90 -16 90 -20 0 -3 36 -12 80 -19 44 -7
80 -15 80 -19 0 -4 39 -13 88 -20 48 -7 89 -17 92 -22 3 -5 41 -14 83 -20 42
-6 77 -15 77 -19 0 -4 38 -12 85 -19 47 -7 85 -17 85 -21 0 -5 33 -13 73 -20
39 -6 86 -18 102 -25 17 -7 53 -16 80 -20 28 -4 55 -11 60 -15 6 -5 39 -14 75
-20 36 -7 70 -16 75 -20 6 -4 37 -13 70 -20 33 -7 65 -16 70 -20 6 -5 38 -14
73 -20 34 -7 62 -16 62 -20 0 -4 32 -12 70 -19 39 -7 70 -16 70 -21 0 -4 30
-13 68 -20 37 -7 70 -17 73 -22 3 -5 33 -14 67 -20 34 -6 62 -15 62 -19 0 -4
26 -13 58 -20 31 -7 66 -18 77 -25 11 -7 35 -15 53 -19 18 -4 45 -13 60 -21
15 -8 42 -17 60 -20 17 -3 32 -10 32 -14 0 -4 23 -13 50 -20 28 -7 50 -16 50
-20 0 -4 23 -13 50 -20 28 -7 50 -16 50 -21 0 -5 9 -9 20 -9 11 0 20 4 20 8 0
5 23 14 50 21 28 7 50 16 50 21 0 4 23 13 50 20 28 7 52 16 55 20 3 4 27 13
55 20 27 7 50 15 50 19 0 4 25 13 55 20 30 7 55 16 55 20 0 4 27 13 60 19 33
7 60 16 60 21 0 4 28 13 62 19 34 6 64 15 67 20 3 5 36 15 74 22 37 7 67 16
67 20 0 5 32 14 70 21 39 7 70 16 70 20 0 4 32 13 70 20 39 7 70 15 70 19 0 4
21 11 48 15 26 4 61 13 77 20 17 7 60 19 98 25 37 7 67 15 67 19 0 4 34 13 75
20 41 7 77 16 80 20 2 5 38 14 80 20 41 7 75 16 75 21 0 4 38 13 85 20 47 7
85 16 85 20 0 4 37 13 82 20 46 6 85 16 88 20 3 5 42 14 88 21 45 8 82 16 82
20 0 4 36 12 80 19 44 7 80 16 80 19 0 4 41 13 90 20 50 8 90 18 90 22 0 5 13
9 28 9 37 0 146 21 152 30 3 4 47 13 98 20 50 7 92 16 92 20 0 4 43 13 95 20
52 7 95 16 95 20 0 4 18 10 40 14 44 7 44 3 0 71 -11 17 -27 45 -35 63 -8 17
-19 32 -23 32 -4 0 -14 16 -21 35 -7 19 -16 35 -21 35 -4 0 -13 12 -19 28 -22
51 -51 102 -59 102 -5 0 -15 18 -22 40 -7 22 -16 40 -20 40 -3 0 -12 16 -20
35 -8 19 -17 35 -21 35 -4 0 -11 10 -14 23 -4 12 -15 31 -25 42 -10 11 -21 30
-25 43 -3 12 -10 22 -15 22 -4 0 -11 11 -14 24 -3 14 -12 31 -19 38 -15 15
-40 59 -58 101 -10 24 -16 27 -59 27 -27 0 -51 -4 -54 -9 -3 -4 -72 -14 -153
-20 -82 -7 -157 -16 -168 -21 -11 -4 -85 -15 -165 -24 -80 -9 -212 -23 -295
-33 -82 -9 -151 -20 -153 -25 -2 -4 -22 -8 -45 -8 -73 0 -287 -24 -287 -32 0
-4 -20 -8 -45 -8 -66 0 -247 -20 -270 -30 -11 -4 -87 -14 -170 -21 -82 -6
-155 -16 -160 -20 -6 -4 -78 -13 -160 -19 -83 -7 -152 -15 -155 -19 -5 -7
-229 -31 -292 -31 -21 0 -38 -4 -38 -10 0 -5 -24 -10 -54 -10 -30 0 -58 5 -61
10 -3 6 -25 10 -48 10 -67 0 -260 21 -282 31 -11 4 -85 14 -165 20 -80 6 -147
15 -150 19 -3 4 -77 13 -165 20 -88 8 -162 16 -165 20 -6 7 -204 30 -263 30
-20 0 -45 4 -55 9 -18 10 -208 31 -277 31 -23 0 -45 4 -50 9 -6 5 -68 14 -140
20 -71 7 -146 16 -165 21 -19 5 -93 14 -165 20 -71 7 -139 16 -150 20 -11 5
-86 14 -167 21 -82 7 -148 16 -148 21 0 4 -22 8 -48 8 -43 0 -50 -3 -63 -27z"/>
<path d="M8246 7358 c-7 -17 -31 -18 -271 -18 -166 0 -266 -4 -270 -10 -3 -6
1 -13 9 -16 14 -5 16 -39 16 -261 0 -232 -2 -257 -17 -269 -15 -11 26 -13 255
-14 235 0 272 -2 272 -15 0 -8 5 -15 10 -15 6 0 10 36 10 88 -1 74 -3 84 -14
70 -12 -16 -34 -18 -200 -18 l-186 0 0 65 0 65 119 0 c99 0 120 -3 125 -16 12
-32 26 0 26 61 0 60 -11 88 -25 65 -4 -6 -55 -10 -126 -10 l-119 0 0 50 0 50
189 0 c142 0 190 -3 194 -12 11 -32 18 7 15 88 -2 58 -6 83 -12 72z"/>
<path d="M8941 7280 c0 -81 2 -92 13 -77 11 14 30 17 115 17 l101 0 0 -215 c0
-184 -2 -215 -15 -215 -8 0 -15 -4 -15 -10 0 -6 41 -10 103 -10 87 1 99 3 85
14 -16 12 -18 35 -18 225 l0 211 96 0 c80 0 99 -3 110 -17 11 -15 13 -4 13 77
0 81 -2 92 -13 78 -12 -16 -38 -18 -281 -18 -243 0 -269 2 -281 18 -11 14 -13
3 -13 -78z"/>
<path d="M8483 7340 c-58 -12 -95 -33 -132 -75 -26 -30 -31 -43 -31 -89 0 -68
29 -113 93 -145 40 -20 68 -24 177 -29 107 -4 132 -8 146 -23 22 -24 14 -58
-19 -83 -42 -31 -186 -30 -280 3 -48 16 -67 27 -65 38 2 9 -1 17 -7 19 -9 3
-76 -129 -75 -149 0 -5 8 -6 19 -2 10 3 60 -6 112 -20 267 -71 479 5 479 172
0 47 -4 58 -35 92 -49 54 -104 71 -250 78 -87 4 -125 10 -137 21 -60 52 40
101 167 83 94 -14 145 -30 145 -46 0 -29 16 -14 53 50 43 74 44 79 17 70 -11
-4 -57 3 -103 14 -99 24 -217 33 -274 21z"/>
<path d="M10180 7339 c-25 -4 -80 -26 -122 -48 -43 -21 -78 -35 -78 -30 0 5
-4 9 -10 9 -21 0 -8 -27 40 -80 40 -45 49 -51 50 -34 1 59 203 107 258 62 20
-17 14 -54 -15 -89 -15 -17 -78 -65 -140 -106 -144 -96 -203 -168 -203 -250 0
-29 3 -34 12 -25 9 9 80 12 258 12 178 0 249 -3 258 -12 9 -9 12 4 12 60 0 41
-4 72 -10 72 -5 0 -10 -4 -10 -10 0 -6 -62 -10 -167 -10 l-166 0 24 26 c13 15
62 51 109 82 145 93 190 146 190 224 0 82 -49 127 -161 148 -58 11 -66 11
-129 -1z"/>
<path d="M10757 7339 c-62 -15 -112 -46 -155 -94 -54 -62 -75 -127 -70 -218 9
-166 117 -267 287 -267 113 0 213 67 262 174 23 51 25 155 3 219 -43 126 -202
217 -327 186z m130 -125 c40 -25 66 -91 66 -166 0 -114 -50 -179 -137 -180
-88 -2 -140 66 -140 182 1 147 107 230 211 164z"/>
<path d="M11370 7339 c-25 -4 -80 -26 -122 -48 -43 -21 -78 -35 -78 -30 0 5
-4 9 -10 9 -21 0 -8 -27 40 -80 40 -45 49 -51 50 -34 1 59 203 107 258 62 20
-17 14 -54 -15 -89 -15 -17 -78 -65 -140 -106 -144 -96 -203 -168 -203 -250 0
-29 3 -34 12 -25 9 9 80 12 258 12 178 0 249 -3 258 -12 9 -9 12 4 12 60 0 41
-4 72 -10 72 -5 0 -10 -4 -10 -10 0 -6 -62 -10 -167 -10 l-166 0 24 26 c13 15
62 51 109 82 145 93 190 146 190 224 0 82 -49 127 -161 148 -58 11 -66 11
-129 -1z"/>
<path d="M11995 7330 c-3 -5 -1 -10 5 -10 6 0 -57 -84 -140 -186 -142 -176
-150 -188 -150 -229 0 -24 5 -47 10 -50 6 -3 10 -1 10 4 0 7 57 11 170 11
l170 0 0 -36 c0 -23 -6 -42 -17 -50 -15 -11 -4 -13 80 -14 58 0 97 4 97 10 0
6 -4 10 -10 10 -5 0 -10 18 -10 40 l0 40 40 0 c22 0 40 -5 40 -11 0 -5 5 -7
10 -4 6 3 10 35 10 70 0 35 -4 67 -10 70 -5 3 -10 -1 -10 -9 0 -12 -10 -16
-40 -16 l-40 0 0 175 c0 110 4 175 10 175 6 0 10 5 10 10 0 6 -45 10 -114 10
-66 0 -117 -4 -121 -10z m75 -230 l0 -130 -110 0 -110 0 107 130 c59 72 109
130 110 130 2 0 3 -58 3 -130z"/>
<path d="M9510 6890 c-12 -12 -20 -33 -20 -55 0 -22 8 -43 20 -55 12 -12 33
-20 55 -20 22 0 43 8 55 20 12 12 20 33 20 55 0 22 -8 43 -20 55 -12 12 -33
20 -55 20 -22 0 -43 -8 -55 -20z"/>
<path d="M4640 6575 c-122 -31 -238 -101 -323 -195 -156 -173 -175 -353 -51
-474 116 -113 318 -96 521 42 224 153 306 396 183 544 -65 79 -208 115 -330
83z"/>
<path d="M12770 4535 c-1 -13 152 -689 157 -694 4 -5 301 145 317 160 5 4 -87
115 -204 246 -252 282 -270 301 -270 288z"/>
<path d="M11820 4131 c-81 -26 -136 -78 -177 -166 -26 -56 -28 -69 -28 -185 0
-111 3 -133 27 -198 100 -274 312 -412 487 -317 124 68 179 208 153 390 -32
217 -137 388 -280 455 -50 24 -142 35 -182 21z"/>
</g>
</svg>
